<svg xmlns="http://www.w3.org/2000/svg" width="1180" height="610" viewBox="0 0 1180 610" role="img" aria-labelledby="title desc">
<title id="title">Ayak Manna — AI Researcher and Full-Stack Developer</title>
<desc id="desc">A terminal-inspired developer profile dashboard showing Ayak Manna's identity, AI and full-stack focus, and technical stack.</desc>
<defs>
  <linearGradient id="bg" x1="0" y1="0" x2="1" y2="1"><stop offset="0" stop-color="#071018"/><stop offset="1" stop-color="#0b1320"/></linearGradient>
  <linearGradient id="accent" x1="0" y1="0" x2="1" y2="0"><stop offset="0" stop-color="#58a6ff"/><stop offset="1" stop-color="#7ee787"/></linearGradient>
  <filter id="glow"><feGaussianBlur stdDeviation="7" result="b"/><feMerge><feMergeNode in="b"/><feMergeNode in="SourceGraphic"/></feMerge></filter>
  <pattern id="grid" width="28" height="28" patternUnits="userSpaceOnUse"><path d="M28 0H0V28" fill="none" stroke="#8b949e" stroke-opacity=".08"/></pattern>
</defs>
<rect width="1180" height="610" rx="24" fill="url(#bg)"/>
<rect x="1" y="1" width="1178" height="608" rx="23" fill="url(#grid)" stroke="#30363d"/>
<rect x="20" y="20" width="1140" height="48" rx="12" fill="#0d1117" stroke="#30363d"/>
<circle cx="42" cy="44" r="6" fill="#ff7b72"/><circle cx="62" cy="44" r="6" fill="#d29922"/><circle cx="82" cy="44" r="6" fill="#7ee787"/>
<text x="108" y="49" fill="#8b949e" font-family="ui-monospace, SFMono-Regular, Consolas, monospace" font-size="15">ayak@github-profile:~$ ./system.info</text>
<text x="1118" y="49" text-anchor="end" fill="#58a6ff" font-family="ui-monospace, SFMono-Regular, Consolas, monospace" font-size="13">ONLINE</text>

<rect x="20" y="88" width="438" height="494" rx="16" fill="#0d1117" stroke="#30363d"/>
<text x="44" y="119" fill="#7ee787" font-family="ui-monospace, SFMono-Regular, Consolas, monospace" font-size="13">01 / VISUAL.NODE</text>
<line x1="44" y1="132" x2="434" y2="132" stroke="#21262d"/>

<rect x="48" y="150" width="382" height="205" rx="12" fill="#090d12" stroke="#21262d"/>
<g fill="#58a6ff" font-family="ui-monospace, SFMono-Regular, Consolas, monospace" font-size="13">
<text x="84" y="184">      .-''''-.</text><text x="84" y="201">    .'  .--.  '.</text><text x="84" y="218">   /   /    \   \</text><text x="84" y="235">  ;   |  ◉  |   ;</text><text x="84" y="252">  |   |  ▪  |   |</text><text x="84" y="269">  ;   |_____|   ;</text><text x="84" y="286">   \   \___/   /</text><text x="84" y="303">    '.       .'</text><text x="84" y="320">      '-.__.-'</text>
</g>
<text x="239" y="341" text-anchor="middle" fill="#484f58" font-family="ui-monospace, SFMono-Regular, Consolas, monospace" font-size="10">ASCII IDENTITY NODE</text>

<text x="48" y="389" fill="#f0f6fc" font-family="ui-monospace, SFMono-Regular, Consolas, monospace" font-size="26" font-weight="700">AYAK MANNA</text>
<text x="48" y="416" fill="#8b949e" font-family="ui-monospace, SFMono-Regular, Consolas, monospace" font-size="13">AI RESEARCHER · AI/ML · FULL-STACK</text>
<rect x="48" y="438" width="382" height="1" fill="#21262d"/>
<text x="48" y="468" fill="#7ee787" font-family="ui-monospace, SFMono-Regular, Consolas, monospace" font-size="12">BUILDING</text>
<text x="48" y="490" fill="#c9d1d9" font-family="ui-monospace, SFMono-Regular, Consolas, monospace" font-size="13">AI systems · intelligent apps</text>
<text x="48" y="511" fill="#c9d1d9" font-family="ui-monospace, SFMono-Regular, Consolas, monospace" font-size="13">ML workflows · full-stack platforms</text>
<text x="48" y="548" fill="#484f58" font-family="ui-monospace, SFMono-Regular, Consolas, monospace" font-size="11">KOLKATA · WEST BENGAL</text>

<rect x="476" y="88" width="684" height="494" rx="16" fill="#0d1117" stroke="#30363d"/>
<text x="500" y="119" fill="#7ee787" font-family="ui-monospace, SFMono-Regular, Consolas, monospace" font-size="13">02 / SYSTEM.INFO</text>
<line x1="500" y1="132" x2="1136" y2="132" stroke="#21262d"/>

<text x="500" y="165" fill="#8b949e" font-family="ui-monospace, SFMono-Regular, Consolas, monospace" font-size="12">IDENTITY</text>
<text x="710" y="165" fill="#f0f6fc" font-family="ui-monospace, SFMono-Regular, Consolas, monospace" font-size="13">Ayak Manna</text>
<text x="500" y="191" fill="#8b949e" font-family="ui-monospace, SFMono-Regular, Consolas, monospace" font-size="12">BACKGROUND</text>
<text x="710" y="191" fill="#f0f6fc" font-family="ui-monospace, SFMono-Regular, Consolas, monospace" font-size="13">B.Tech CSE — AI/ML</text>
<text x="500" y="217" fill="#8b949e" font-family="ui-monospace, SFMono-Regular, Consolas, monospace" font-size="12">ROLE</text>
<text x="710" y="217" fill="#f0f6fc" font-family="ui-monospace, SFMono-Regular, Consolas, monospace" font-size="13">AI Researcher &amp; Trainee</text>

<rect x="500" y="244" width="636" height="1" fill="#21262d"/>
<text x="500" y="274" fill="#58a6ff" font-family="ui-monospace, SFMono-Regular, Consolas, monospace" font-size="12">FOCUS</text>
<text x="500" y="300" fill="#c9d1d9" font-family="ui-monospace, SFMono-Regular, Consolas, monospace" font-size="13">Artificial Intelligence</text>
<text x="500" y="323" fill="#c9d1d9" font-family="ui-monospace, SFMono-Regular, Consolas, monospace" font-size="13">Machine Learning · Generative AI · LLMs</text>
<text x="500" y="346" fill="#c9d1d9" font-family="ui-monospace, SFMono-Regular, Consolas, monospace" font-size="13">Backend Engineering · Full-Stack Development</text>

<text x="500" y="385" fill="#58a6ff" font-family="ui-monospace, SFMono-Regular, Consolas, monospace" font-size="12">STACK</text>
<g font-family="ui-monospace, SFMono-Regular, Consolas, monospace" font-size="12">
<rect x="500" y="402" width="120" height="30" rx="8" fill="#111820" stroke="#30363d"/><text x="560" y="421" text-anchor="middle" fill="#7ee787">PYTHON</text>
<rect x="630" y="402" width="120" height="30" rx="8" fill="#111820" stroke="#30363d"/><text x="690" y="421" text-anchor="middle" fill="#7ee787">FASTAPI</text>
<rect x="760" y="402" width="120" height="30" rx="8" fill="#111820" stroke="#30363d"/><text x="820" y="421" text-anchor="middle" fill="#7ee787">NEXT.JS</text>
<rect x="890" y="402" width="120" height="30" rx="8" fill="#111820" stroke="#30363d"/><text x="950" y="421" text-anchor="middle" fill="#7ee787">POSTGRESQL</text>
<rect x="1020" y="402" width="116" height="30" rx="8" fill="#111820" stroke="#30363d"/><text x="1078" y="421" text-anchor="middle" fill="#7ee787">LLMs</text>
</g>

<text x="500" y="467" fill="#58a6ff" font-family="ui-monospace, SFMono-Regular, Consolas, monospace" font-size="12">STATUS</text>
<text x="500" y="493" fill="#c9d1d9" font-family="ui-monospace, SFMono-Regular, Consolas, monospace" font-size="13">Researching · Building · Experimenting · Shipping</text>
<rect x="500" y="519" width="636" height="4" rx="2" fill="#21262d"/>
<rect x="500" y="519" width="392" height="4" rx="2" fill="url(#accent)" filter="url(#glow)">
<animate attributeName="width" values="392;520;392" dur="5s" repeatCount="indefinite"/>
</rect>
<text x="500" y="552" fill="#484f58" font-family="ui-monospace, SFMono-Regular, Consolas, monospace" font-size="11">SYSTEM.READY // BUILD PIPELINE ACTIVE</text>
<text x="1136" y="552" text-anchor="end" fill="#7ee787" font-family="ui-monospace, SFMono-Regular, Consolas, monospace" font-size="11">v2.0</text>
<rect x="24" y="24" width="1132" height="562" rx="20" fill="none" stroke="#58a6ff" stroke-opacity=".25">
<animate attributeName="stroke-opacity" values=".12;.35;.12" dur="4s" repeatCount="indefinite"/>
</rect>
</svg>
