\
<svg xmlns="http://www.w3.org/2000/svg" width="1180" height="610" viewBox="0 0 1180 610" role="img" aria-labelledby="title desc">
  <title id="title">Ayak Manna — AI Researcher, AI/ML Developer and Full-Stack Developer</title>
  <desc id="desc">Premium terminal-style GitHub profile banner with an ASCII visual identity on the left and system information on the right.</desc>
  <defs>
    <linearGradient id="bg" x1="0" y1="0" x2="1" y2="1">
      <stop offset="0" stop-color="#f8fafc"/>
      <stop offset=".48" stop-color="#eef6ff"/>
      <stop offset="1" stop-color="#f5f3ff"/>
    </linearGradient>
    <linearGradient id="accent" x1="0" y1="0" x2="1" y2="0">
      <stop offset="0" stop-color="#22d3ee"/>
      <stop offset=".52" stop-color="#8b5cf6"/>
      <stop offset="1" stop-color="#10b981"/>
    </linearGradient>
    <linearGradient id="glass" x1="0" y1="0" x2="1" y2="1">
      <stop offset="0" stop-color="#ffffff" stop-opacity=".86"/>
      <stop offset="1" stop-color="#f8fafc" stop-opacity=".72"/>
    </linearGradient>
    <radialGradient id="glow1" cx=".16" cy=".30" r=".7">
      <stop offset="0" stop-color="#22d3ee" stop-opacity=".12"/>
      <stop offset="1" stop-color="#22d3ee" stop-opacity="0"/>
    </radialGradient>
    <radialGradient id="glow2" cx=".82" cy=".65" r=".65">
      <stop offset="0" stop-color="#8b5cf6" stop-opacity=".11"/>
      <stop offset="1" stop-color="#8b5cf6" stop-opacity="0"/>
    </radialGradient>
    <pattern id="grid" width="28" height="28" patternUnits="userSpaceOnUse">
      <path d="M28 0H0V28" fill="none" stroke="#94a3b8" stroke-opacity=".045"/>
    </pattern>
    <filter id="shadow" x="-30%" y="-30%" width="160%" height="160%">
      <feGaussianBlur in="SourceAlpha" stdDeviation="7" result="b"/>
      <feOffset dy="5" result="o"/>
      <feColorMatrix in="o" type="matrix" values="0 0 0 0 0 0 0 0 0 0 0 0 0 0 0 0 0 0 .45 0"/>
      <feBlend in="SourceGraphic"/>
    </filter>
    <filter id="softglow">
      <feGaussianBlur stdDeviation="3" result="b"/>
      <feMerge><feMergeNode in="b"/><feMergeNode in="SourceGraphic"/></feMerge>
    </filter>
    <clipPath id="frameClip"><rect x="18" y="18" width="1144" height="574" rx="24"/></clipPath>
    <style>
      .mono{font-family:ui-monospace,SFMono-Regular,Menlo,Monaco,Consolas,monospace}
      .label{font:600 12px ui-monospace,SFMono-Regular,Menlo,Monaco,Consolas,monospace;letter-spacing:2px}
      .small{font:500 11px ui-monospace,SFMono-Regular,Menlo,Monaco,Consolas,monospace}
      .body{font:500 14px ui-monospace,SFMono-Regular,Menlo,Monaco,Consolas,monospace}
    </style>
  </defs>

  <rect width="1180" height="610" rx="28" fill="#020617"/>
  <g clip-path="url(#frameClip)">
    <rect x="18" y="18" width="1144" height="574" fill="url(#bg)"/>
    <rect x="18" y="18" width="1144" height="574" fill="url(#grid)"/>
    <rect x="18" y="18" width="1144" height="574" fill="url(#glow1)"/>
    <rect x="18" y="18" width="1144" height="574" fill="url(#glow2)"/>

    <!-- terminal chrome -->
    <rect x="18" y="18" width="1144" height="54" fill="#080f1c" fill-opacity=".92"/>
    <line x1="18" y1="72" x2="1162" y2="72" stroke="#334155" stroke-opacity=".55"/>
    <circle cx="48" cy="45" r="7" fill="#ef4444"/>
    <circle cx="72" cy="45" r="7" fill="#eab308"/>
    <circle cx="96" cy="45" r="7" fill="#22c55e"/>
    <text x="128" y="49" class="small" fill="#94a3b8">ayak@profile:~</text>
    <text x="1024" y="49" class="label" fill="#22d3ee">ONLINE</text>
    <circle cx="1117" cy="45" r="4" fill="#22d3ee">
      <animate attributeName="opacity" values=".35;1;.35" dur="2.4s" repeatCount="indefinite"/>
    </circle>

    <!-- left panel -->
    <rect x="42" y="94" width="420" height="464" rx="18" fill="url(#glass)" stroke="#334155" stroke-opacity=".72"/>
    <text x="68" y="125" class="label" fill="#22d3ee">VISUAL.MAP</text>
    <text x="68" y="148" class="small" fill="#64748b">/profile /identity /engineering</text>

    <rect x="68" y="168" width="368" height="278" rx="14" fill="#f8fafc" fill-opacity=".72" stroke="#1e293b"/>
    <text x="87" y="194" class="small" fill="#64748b">render://ascii_identity</text>

    <!-- abstract terminal ASCII portrait: intentionally not a claim of an actual photo -->
    <g class="mono" fill="#67e8f9" font-size="11" opacity=".88">
      <text x="93" y="222">          .·:+*#%%#*+:·.</text>
      <text x="93" y="234">       .:+#%%%%%%%%%%#+:.</text>
      <text x="93" y="246">     .+%%%%%%%%%%%%%%%%+.</text>
      <text x="93" y="258">    +%%%%%%#*++++*#%%%%%%+</text>
      <text x="93" y="270">   *%%%%%+          +%%%%%*</text>
      <text x="93" y="282">  +%%%%%+    .:::.    +%%%%%+</text>
      <text x="93" y="294">  %%%%%+   :#%%%%%#:   +%%%%%</text>
      <text x="93" y="306">  %%%%%   :%%%%%%%%%%:   %%%%%</text>
      <text x="93" y="318">  %%%%%   %%%%.  .%%%%   %%%%%</text>
      <text x="93" y="330">  +%%%%%   %%%%    %%%%   %%%%%+</text>
      <text x="93" y="342">   *%%%%%   :%%#**#%%:   %%%%%*</text>
      <text x="93" y="354">    +%%%%%%.   '%%'   .%%%%%%+</text>
      <text x="93" y="366">      +%%%%%%#:.  .:#%%%%%%+</text>
      <text x="93" y="378">        *%%%%%%%%%%%%%%*</text>
      <text x="93" y="390">          +#%%%%%%%%#+</text>
      <text x="93" y="410">       .·:+*########*+:·.</text>
    </g>

    <rect x="68" y="463" width="368" height="1" fill="#334155"/>
    <text x="68" y="490" class="label" fill="#0f172a">AYAK MANNA</text>
    <text x="68" y="513" class="small" fill="#22d3ee">AI RESEARCHER · AI/ML · FULL-STACK</text>
    <text x="68" y="537" class="small" fill="#64748b">build --learn --experiment --ship</text>

    <!-- divider -->
    <line x1="484" y1="94" x2="484" y2="558" stroke="#334155" stroke-opacity=".6"/>
    <circle cx="484" cy="104" r="3" fill="#8b5cf6"/>
    <circle cx="484" cy="548" r="3" fill="#10b981"/>

    <!-- right system panel -->
    <rect x="508" y="94" width="630" height="464" rx="18" fill="url(#glass)" stroke="#334155" stroke-opacity=".72"/>
    <text x="538" y="126" class="label" fill="#8b5cf6">SYSTEM.INFO</text>
    <text x="538" y="149" class="small" fill="#64748b">ayak@profile:~$ ./profile.sh</text>
    <rect x="538" y="163" width="570" height="1" fill="#334155"/>

    <text x="538" y="192" class="label" fill="#64748b">IDENTITY</text>
    <text x="538" y="220" class="body" fill="#94a3b8">NAME</text>
    <text x="686" y="220" class="body" fill="#0f172a">Ayak Manna</text>
    <text x="538" y="247" class="body" fill="#94a3b8">ROLE</text>
    <text x="686" y="247" class="body" fill="#0f172a">AI Researcher &amp; Trainee</text>
    <text x="538" y="274" class="body" fill="#94a3b8">EDUCATION</text>
    <text x="686" y="274" class="body" fill="#0f172a">B.Tech CSE — AI/ML</text>
    <text x="538" y="301" class="body" fill="#94a3b8">FOCUS</text>
    <text x="686" y="301" class="body" fill="#0f172a">AI · ML · GenAI · Full-Stack</text>

    <text x="538" y="339" class="label" fill="#64748b">ENGINEERING.STACK</text>
    <g class="small">
      <rect x="538" y="355" width="94" height="28" rx="8" fill="#22d3ee" fill-opacity=".08" stroke="#22d3ee" stroke-opacity=".4"/>
      <text x="585" y="373" text-anchor="middle" fill="#67e8f9">PYTHON</text>
      <rect x="642" y="355" width="94" height="28" rx="8" fill="#8b5cf6" fill-opacity=".08" stroke="#8b5cf6" stroke-opacity=".4"/>
      <text x="689" y="373" text-anchor="middle" fill="#c4b5fd">FASTAPI</text>
      <rect x="746" y="355" width="94" height="28" rx="8" fill="#22d3ee" fill-opacity=".08" stroke="#22d3ee" stroke-opacity=".4"/>
      <text x="793" y="373" text-anchor="middle" fill="#67e8f9">NEXT.JS</text>
      <rect x="850" y="355" width="94" height="28" rx="8" fill="#10b981" fill-opacity=".08" stroke="#10b981" stroke-opacity=".4"/>
      <text x="897" y="373" text-anchor="middle" fill="#6ee7b7">POSTGRES</text>
      <rect x="954" y="355" width="154" height="28" rx="8" fill="#8b5cf6" fill-opacity=".08" stroke="#8b5cf6" stroke-opacity=".4"/>
      <text x="1031" y="373" text-anchor="middle" fill="#c4b5fd">MACHINE LEARNING</text>
    </g>

    <text x="538" y="420" class="label" fill="#64748b">SELECTED.PROJECTS</text>
    <text x="538" y="445" class="body" fill="#0f172a">01  ComicCrafter AI</text>
    <text x="538" y="467" class="small" fill="#64748b">AI comic generation · FastAPI · Next.js · Groq</text>
    <text x="538" y="494" class="body" fill="#0f172a">02  HealthPartner</text>
    <text x="538" y="516" class="small" fill="#64748b">Disease prediction · Random Forest · CNN · SHAP</text>
    <text x="538" y="543" class="small" fill="#22d3ee">~/profile $ </text>
    <text x="621" y="543" class="small" fill="#0f172a">building intelligent applications</text>
    <rect x="1103" y="533" width="6" height="12" fill="#22d3ee">
      <animate attributeName="opacity" values="1;0;1" dur="1s" repeatCount="indefinite"/>
    </rect>

    <!-- subtle scanline -->
    <rect x="18" y="92" width="1144" height="2" fill="url(#accent)" opacity=".10">
      <animate attributeName="y" values="92;585;92" dur="9s" repeatCount="indefinite"/>
    </rect>
    <rect x="18" y="18" width="1144" height="574" fill="none" stroke="url(#accent)" stroke-opacity=".30">
      <animate attributeName="stroke-opacity" values=".18;.42;.18" dur="4s" repeatCount="indefinite"/>
    </rect>
  </g>
  <rect x="18" y="18" width="1144" height="574" rx="24" fill="none" stroke="#475569" stroke-opacity=".55"/>
</svg>
